<?xml version="1.0"?>
<svg xmlns:rdf="http://www.w3.org/1999/02/22-rdf-syntax-ns#" xmlns="http://www.w3.org/2000/svg" xmlns:cc="http://web.resource.org/cc/" xmlns:xlink="http://www.w3.org/1999/xlink" xmlns:dc="http://purl.org/dc/elements/1.1/" xmlns:svg="http://www.w3.org/2000/svg" id="svg2" viewBox="0 0 386.12 512.76" version="1.0">
  <defs id="defs4">
    <linearGradient id="linearGradient3155">
      <stop id="stop3157" stop-color="#c67d0b" offset="0"/>
      <stop id="stop3159" stop-color="#7e5007" offset="1"/>
    </linearGradient>
    <filter id="filter3269" y="-.096816" width="1.4056" height="1.1936" x="-.20282">
      <feGaussianBlur id="feGaussianBlur3271" stdDeviation="10.944574"/>
    </filter>
    <filter id="filter3371" y="-.068687" width="1.2401" height="1.1374" x="-.12005">
      <feGaussianBlur id="feGaussianBlur3373" stdDeviation="6.9882173"/>
    </filter>
    <filter id="filter3555">
      <feGaussianBlur id="feGaussianBlur3557" stdDeviation="7.1138934"/>
    </filter>
    <filter id="filter3559">
      <feGaussianBlur id="feGaussianBlur3561" stdDeviation="4.8621517"/>
    </filter>
    <filter id="filter3713" y="-.19954" width="1.0849" height="1.3991" x="-.042445">
      <feGaussianBlur id="feGaussianBlur3715" stdDeviation="6.8449937"/>
    </filter>
    <filter id="filter3717" y="-.15201" width="1.0909" height="1.304" x="-.04547">
      <feGaussianBlur id="feGaussianBlur3719" stdDeviation="6.783958"/>
    </filter>
    <filter id="filter3287" y="-.11831" width="1.3194" height="1.2366" x="-.15969">
      <feGaussianBlur id="feGaussianBlur3289" stdDeviation="47.668386"/>
    </filter>
    <linearGradient id="linearGradient3161" y2="362.07" xlink:href="#linearGradient3155" gradientUnits="userSpaceOnUse" x2="-4.5296" gradientTransform="matrix(.52665 0 0 .52737 -128.72 572.68)" y1="323.3" x1="-4.5296"/>
    <linearGradient id="linearGradient3165" y2="362.07" xlink:href="#linearGradient3155" gradientUnits="userSpaceOnUse" x2="-4.5296" gradientTransform="matrix(.52665 0 0 .52737 -128.72 968.21)" y1="323.3" x1="-4.5296"/>
    <radialGradient id="radialGradient3195" gradientUnits="userSpaceOnUse" cy="695.7" cx="-120.74" gradientTransform="matrix(.68789 1.3319 -1.1792 .61069 694.67 606.04)" r="169.47">
      <stop id="stop3199" stop-color="#c8ab72" offset="0"/>
      <stop id="stop3203" stop-color="#ab874d" offset=".78333"/>
      <stop id="stop3201" stop-color="#4e310c" offset="1"/>
    </radialGradient>
  </defs>
  <g id="layer2" transform="translate(313.41 -700.47)">
    <path id="path2189" filter="url(#filter3287)" d="m-257.25 328.75c-10.4 0-18.78 8.38-18.78 18.78v17.25c0 10.41 8.38 18.78 18.78 18.78h559.44c10.4 0 18.78-8.37 18.78-18.78v-17.25c0-10.4-8.38-18.78-18.78-18.78h-559.44zm283 57.63c-3.408 0-6.792 0.04-10.156 0.12-1.025 0.02-2.042 0.03-3.063 0.06-1.077 0.03-2.147 0.09-3.2185 0.13-1.2379 0.04-2.4876 0.1-3.7187 0.15-1.5479 0.08-3.0883 0.13-4.625 0.22-0.2718 0.02-0.54116 0.05-0.81255 0.06-0.94002 0.06-1.8768 0.13-2.8124 0.19-1.1168 0.08-2.2334 0.14-3.3438 0.22-0.375 0.03-0.7508 0.07-1.125 0.09-1.6338 0.13-3.255 0.29-4.875 0.44-0.647 0.06-1.293 0.13-1.938 0.19-1.598 0.16-3.197 0.32-4.781 0.5-1.22 0.14-2.444 0.29-3.656 0.44-1.549 0.19-3.091 0.38-4.625 0.59-0.198 0.03-0.396 0.07-0.594 0.1-0.74 0.1-1.482 0.2-2.218 0.31-0.899 0.13-1.795 0.26-2.688 0.4-0.104 0.02-0.208 0.05-0.312 0.07-0.752 0.12-1.503 0.25-2.25 0.37-0.776 0.13-1.542 0.24-2.313 0.38-0.042 0-0.083 0.02-0.125 0.03-1.639 0.28-3.287 0.56-4.906 0.87-0.189 0.04-0.374 0.09-0.563 0.13-1.354 0.26-2.691 0.53-4.031 0.81-0.398 0.08-0.791 0.16-1.188 0.25-1.151 0.25-2.297 0.52-3.437 0.78-0.407 0.09-0.814 0.19-1.219 0.28-0.793 0.19-1.587 0.37-2.375 0.56-0.529 0.13-1.067 0.28-1.593 0.41-1.538 0.39-3.078 0.77-4.594 1.19-0.096 0.02-0.186 0.07-0.282 0.09-1.131 0.31-2.255 0.65-3.374 0.97-0.825 0.24-1.651 0.47-2.469 0.72-0.252 0.08-0.499 0.17-0.75 0.25-1.3 0.4-2.594 0.8-3.875 1.22-0.963 0.32-1.923 0.64-2.875 0.97-1.378 0.47-2.739 0.97-4.094 1.47-0.145 0.05-0.293 0.1-0.437 0.15-1.033 0.39-2.044 0.79-3.063 1.19-0.456 0.18-0.921 0.35-1.375 0.53-0.061 0.03-0.127 0.04-0.188 0.06-1.258 0.51-2.512 1.01-3.75 1.54-1.333 0.56-2.628 1.15-3.937 1.74-0.063 0.03-0.124 0.07-0.187 0.1-1.194 0.55-2.391 1.12-3.563 1.69-0.945 0.46-1.882 0.93-2.813 1.4-0.399 0.21-0.79 0.42-1.187 0.63-0.635 0.33-1.275 0.66-1.905 1-0.53 0.28-1.07 0.55-1.59 0.84-1.01 0.55-1.99 1.12-2.97 1.69-0.17 0.09-0.34 0.18-0.5 0.28-0.85 0.5-1.67 1.02-2.5 1.53-0.48 0.3-0.97 0.58-1.44 0.88-0.51 0.31-1 0.64-1.5 0.96-1.01 0.66-2.01 1.33-3 2-0.84 0.58-1.68 1.16-2.5 1.76-0.61 0.43-1.22 0.86-1.81 1.31-0.89 0.65-1.76 1.32-2.63 2-30.25 23.61-48.53 59.11-48.53 109.78 0 95.78 170.56 122.63 170.56 195.87 0.00098 71.63-170.56 100.16-170.56 195.94 0 67.66 33.06 108.32 83.312 129.62 1.001 0.5 2.017 0.9 3.032 1.3 0.703 0.3 1.415 0.6 2.125 0.8 0.623 0.3 1.247 0.5 1.875 0.8 0.446 0.1 0.895 0.3 1.344 0.4 0.523 0.2 1.035 0.5 1.562 0.6 0.676 0.3 1.35 0.5 2.031 0.8 0.116 0 0.228 0 0.344 0.1 2.43 0.8 4.911 1.6 7.406 2.4 1.162 0.4 2.325 0.7 3.5 1 0.58 0.2 1.167 0.4 1.75 0.5 0.168 0.1 0.332 0.1 0.5 0.2 1.679 0.4 3.389 0.9 5.094 1.3 0.461 0.1 0.912 0.3 1.375 0.4 0.187 0 0.375 0.1 0.562 0.1 1.231 0.3 2.476 0.6 3.719 0.9 0.252 0.1 0.498 0.1 0.75 0.2 1.08 0.2 2.161 0.5 3.25 0.7 0.356 0.1 0.706 0.2 1.063 0.2 1.465 0.3 2.924 0.6 4.406 0.9 1.522 0.3 3.055 0.6 4.594 0.8 0.197 0.1 0.396 0.1 0.594 0.1 1.316 0.3 2.64 0.5 3.968 0.7 1.691 0.3 3.384 0.5 5.094 0.8 2.193 0.3 4.403 0.6 6.625 0.8 0.437 0.1 0.874 0.1 1.313 0.2 1.897 0.2 3.801 0.4 5.718 0.6 0.882 0.1 1.771 0.2 2.656 0.3 1.948 0.1 3.9088 0.3 5.8755 0.4 1.9784 0.2 3.9719 0.3 5.9688 0.5h0.7812c0.9336 0 1.8751 0.1 2.8125 0.1 0.438 0.1 0.8737 0.1 1.3125 0.1 1.4535 0.1 2.9127 0.1 4.3755 0.2 1.838 0.1 3.679 0.1 5.531 0.1 1.382 0.1 2.766 0.1 4.156 0.1 1.956 0 3.906 0.1 5.875 0.1 1.684 0 3.357 0 5.031-0.1h0.75c1.421 0 2.836 0 4.25-0.1 1.82 0 3.631 0 5.438-0.1 0.679 0 1.354-0.1 2.031-0.1 2.458-0.1 4.912-0.2 7.344-0.3 2.101-0.2 4.2-0.3 6.281-0.5h0.5c2.473-0.2 4.933-0.4 7.375-0.7h0.344c2.233-0.2 4.451-0.5 6.656-0.7 0.167 0 0.334-0.1 0.5-0.1h0.5c2.17-0.3 4.327-0.6 6.469-0.9h0.469c1.631-0.3 3.229-0.6 4.843-0.8 0.816-0.2 1.626-0.3 2.438-0.4 0.481-0.1 0.957-0.2 1.437-0.3 1.93-0.3 3.847-0.6 5.75-1 1.788-0.4 3.549-0.8 5.313-1.1 0.571-0.2 1.151-0.3 1.721-0.4 1.71-0.4 3.4-0.8 5.09-1.2 0.61-0.2 1.21-0.3 1.81-0.4 0.81-0.2 1.61-0.5 2.41-0.7 0.33-0.1 0.67-0.2 1-0.3 1.25-0.3 2.51-0.6 3.75-1 1.25-0.3 2.49-0.7 3.72-1.1 1.39-0.4 2.75-0.9 4.12-1.3 1.18-0.4 2.34-0.8 3.5-1.2 0.35-0.1 0.72-0.2 1.07-0.4 0.1 0 0.2 0 0.31-0.1 3.77-1.3 7.46-2.7 11.06-4.3 0.48-0.2 0.94-0.4 1.41-0.6 0.8-0.4 1.61-0.7 2.4-1.1l0.63-0.3c1.05-0.4 2.09-1 3.12-1.5 1.25-0.6 2.47-1.2 3.69-1.8 1.15-0.6 2.28-1.2 3.41-1.8 0.06 0 0.12-0.1 0.19-0.1 0.39-0.2 0.79-0.4 1.18-0.7 0.79-0.4 1.57-0.9 2.35-1.3 0.14-0.1 0.29-0.2 0.43-0.3 1.02-0.6 2.04-1.2 3.04-1.8 0.81-0.5 1.6-1 2.4-1.5 0.33-0.2 0.65-0.4 0.97-0.6 0.56-0.4 1.1-0.8 1.66-1.2 0.54-0.3 1.08-0.7 1.62-1.1 0.33-0.2 0.65-0.4 0.97-0.7 0.76-0.5 1.51-1 2.25-1.6 0.1-0.1 0.19-0.1 0.28-0.2 0.96-0.7 1.94-1.5 2.88-2.2 0.69-0.5 1.37-1.1 2.06-1.6 0.33-0.3 0.64-0.6 0.97-0.9 0.03 0 0.06 0 0.09-0.1 1.98-1.6 3.89-3.3 5.75-5.1 0.05-0.1 0.11-0.1 0.16-0.1 0.75-0.8 1.49-1.5 2.22-2.2 0.65-0.7 1.29-1.4 1.93-2 0.07-0.1 0.15-0.2 0.22-0.2 0.33-0.4 0.65-0.7 0.97-1.1 0.39-0.4 0.78-0.8 1.16-1.2 0.49-0.6 0.98-1.1 1.47-1.7 0.19-0.2 0.37-0.4 0.56-0.6 0.65-0.8 1.3-1.6 1.94-2.4h0.06c0.81-1 1.59-2 2.37-3.1 0.48-0.6 0.95-1.2 1.41-1.9 0.31-0.4 0.61-0.8 0.91-1.3 0.3-0.4 0.61-0.8 0.9-1.2 0.45-0.7 0.91-1.3 1.35-2 0.13-0.2 0.27-0.4 0.4-0.6 0.57-0.9 1.11-1.8 1.66-2.7 0.43-0.7 0.86-1.4 1.28-2.2 0.11-0.1 0.23-0.3 0.34-0.5 0.16-0.3 0.32-0.6 0.47-0.9 0.38-0.6 0.73-1.28 1.1-1.96 0.27-0.5 0.54-1.01 0.81-1.53 0.22-0.43 0.44-0.88 0.65-1.31 0.4-0.77 0.78-1.56 1.16-2.34 0.09-0.19 0.19-0.38 0.28-0.57 0.5-1.05 0.97-2.08 1.44-3.15 0.4-0.92 0.81-1.85 1.19-2.78 7-17.05 10.81-36.9 10.81-59.88 0-95.78-170.56-124.31-170.56-195.94-0.004-73.24 170.56-100.09 170.56-195.87 0-32.94-7.72-59.48-21.44-80.5-0.7-1.08-1.42-2.11-2.15-3.16-0.62-0.88-1.24-1.76-1.88-2.62-0.14-0.19-0.27-0.38-0.41-0.57-0.11-0.14-0.23-0.28-0.34-0.43-0.55-0.73-1.12-1.44-1.69-2.16-0.45-0.57-0.91-1.13-1.37-1.69-0.12-0.14-0.23-0.29-0.34-0.43-0.39-0.46-0.77-0.93-1.16-1.38-0.21-0.24-0.42-0.48-0.63-0.72-0.64-0.74-1.3-1.46-1.97-2.19-0.57-0.62-1.16-1.23-1.74-1.84-0.32-0.33-0.62-0.67-0.94-1s-0.65-0.64-0.97-0.97c-0.6-0.59-1.21-1.17-1.81-1.75-0.06-0.05-0.11-0.1-0.16-0.15-0.89-0.85-1.78-1.68-2.69-2.5-0.01-0.01-0.02-0.03-0.03-0.03-0.97-0.87-1.94-1.73-2.94-2.57-0.15-0.13-0.31-0.27-0.46-0.4-0.84-0.7-1.71-1.39-2.57-2.07-0.58-0.46-1.16-0.92-1.75-1.37-0.45-0.35-0.91-0.69-1.37-1.03-0.28-0.21-0.56-0.42-0.85-0.63-0.77-0.57-1.55-1.13-2.34-1.69-0.73-0.51-1.47-1.02-2.22-1.53-0.35-0.23-0.7-0.48-1.06-0.71-0.42-0.28-0.86-0.54-1.28-0.82-1.18-0.76-2.36-1.52-3.56-2.25-0.41-0.24-0.82-0.47-1.22-0.72-0.27-0.15-0.55-0.31-0.82-0.47-1.14-0.66-2.3-1.32-3.46-1.96-1.19-0.66-2.39-1.28-3.6-1.91s-2.42-1.24-3.66-1.84c-0.36-0.18-0.73-0.36-1.09-0.53-0.24-0.12-0.48-0.24-0.72-0.35-1.46-0.69-2.94-1.37-4.43-2.03-0.06-0.02-0.11-0.04-0.16-0.06l-0.06-0.03c-1.16-0.51-2.33-0.99-3.5-1.47l-1.47-0.6c-1.22-0.48-2.46-0.97-3.69-1.43-0.14-0.06-0.29-0.11-0.44-0.16-0.99-0.37-1.99-0.76-3-1.13-0.27-0.09-0.54-0.18-0.81-0.28-0.54-0.19-1.08-0.37-1.63-0.56-0.82-0.28-1.63-0.54-2.46-0.81-1.37-0.45-2.74-0.89-4.13-1.31-1.28-0.4-2.57-0.79-3.87-1.16-0.42-0.12-0.84-0.23-1.25-0.34-0.73-0.21-1.46-0.43-2.19-0.63-0.38-0.1-0.77-0.21-1.16-0.31-1.43-0.38-2.89-0.74-4.34-1.1-1.12-0.27-2.25-0.52-3.38-0.78-0.64-0.15-1.28-0.32-1.93-0.46-0.48-0.11-0.96-0.21-1.441-0.32-3.772-0.81-7.614-1.54-11.5-2.22-1.376-0.23-2.768-0.46-4.157-0.68-1.168-0.19-2.353-0.39-3.531-0.57-2.15-0.31-4.319-0.6-6.5-0.87-0.03-0.01-0.063 0-0.093 0-1.392-0.18-2.784-0.34-4.188-0.5-1.516-0.17-3.033-0.32-4.562-0.47-0.343-0.03-0.688-0.06-1.032-0.09-3.294-0.32-6.615-0.62-9.968-0.85-0.177-0.01-0.355-0.02-0.532-0.03-1.355-0.09-2.729-0.17-4.094-0.25-1.298-0.07-2.599-0.13-3.906-0.19-1.065-0.05-2.148-0.08-3.218-0.12-0.596-0.02-1.185-0.07-1.782-0.1-0.313-0.01-0.624-0.02-0.937-0.03-1.703-0.05-3.41-0.09-5.125-0.12-0.644-0.01-1.292-0.02-1.938-0.03-2.37-0.04-4.765-0.06-7.156-0.06zm-283 693.42c-10.4 0-18.78 8.3-18.78 18.7v17.3c0 10.4 8.38 18.8 18.78 18.8h559.44c10.4 0 18.78-8.4 18.78-18.8v-17.3c0-10.4-8.38-18.7-18.78-18.7h-559.44z" transform="matrix(.52665 0 0 .52737 -128.72 572.68)"/>
  </g>
  <g id="layer1" transform="translate(313.41 -700.47)">
    <path id="path3576" d="m-129.38 1127.7c56.696 0 103.36-20.2 103.36-78.7-0.001-50.47-89.83-65.51-89.83-103.29 0-38.63 89.829-52.79 89.829-103.3 0-58.42-46.004-78.63-103.36-78.63-57.35 0-103.35 20.21-103.35 78.63 0 50.51 89.83 64.67 89.83 103.3 0 37.78-89.83 52.82-89.83 103.29 0 58.5 46.66 78.7 103.35 78.7z" stroke="#2876d4" stroke-linecap="round" stroke-width="5" fill="#80b3ff"/>
    <path id="path3594" d="m-208.31 870.08c22.11 29.9 74.52 45.15 74.52 75.63 0 22.71 8.71 62.09-15.55 81.09-16.11 12.5-21.21 22.3-68.63 22.2 0 58.5 36.79 75 89.25 75 52.469 0 89.253-16.5 89.253-75-55.712 0.1-49.624-7.6-69.793-22-21.85-15.5-14.39-61.65-14.39-81.29 0-30.48 52.413-45.73 74.523-75.63 0 0-40.388 24.93-80.183 24.93-39.79 0-79-24.93-79-24.93z" fill="url(#radialGradient3195)"/>
    <path id="path2169" opacity=".1699" d="m-128.72 768c-52.46 0-89.25 15.99-89.25 74.41 0 50.51 84.18 64.67 84.18 103.3 0 37.78-84.18 52.82-84.18 103.29 0 58.5 36.79 75 89.25 75 52.469 0 89.253-16.5 89.253-75 0-50.47-84.183-65.51-84.183-103.29 0-38.63 84.183-52.79 84.183-103.3 0-58.42-36.784-74.41-89.253-74.41z" fill="#dae2ef"/>
    <path id="path3150" filter="url(#filter3269)" d="m-113.05 473.41c-6.05 22.59 0.39 68.63 46.03 141.31-81.55-41.22-97.1-119.64-81.55-157.46 14.97-36.43 51.287-68.63 102.54-68.63-53.708 30.68-61.36 63.7-67.02 84.78z" fill="#fff" transform="matrix(.52665 0 0 .52737 -128.72 572.68)"/>
    <path id="path3273" filter="url(#filter3371)" d="m-121.12 872.42c-14.62 23.16-14.15 52.48-8.88 100.93-26.64-37.99-32.74-82.95-18.57-110.62 13.84-27.05 46.44-37.95 109-92.86-26.255 64.59-66.21 78.24-81.55 102.55z" fill="#fff" transform="matrix(.52665 0 0 .52737 -128.72 572.68)"/>
    <path id="path3375" filter="url(#filter3559)" d="m15.342 1002.4c-2.088-77.93 42.964-120.1 150.19-127.56-88.245 31.73-105.16 54.9-150.19 127.56z" fill="#04a" transform="matrix(-.52665 0 0 -.52737 -37.792 1582.3)"/>
    <path id="path3481" d="m148.57 552.5s-51.52 61.68-90.047 86.95c-31.638 20.76-39.939 35.76-43.169 70.39-3.911 41.93 23.631 44.98 83.846 96.59-76.379-36.23-104.69-63.08-103.07-100.23 1.6139-37.14 28.658-59.9 62.571-80.9 33.914-20.99 91.489-74.41 89.869-72.8z" fill-rule="evenodd" transform="matrix(.52665 0 0 .52737 -128.72 572.68)" filter="url(#filter3555)" fill="#04a"/>
    <rect id="rect3563" rx="18.782" ry="18.782" height="28.914" width="314.42" stroke="#000" stroke-linecap="round" y="733.39" x="-288.31" stroke-width="5" fill="url(#linearGradient3161)"/>
    <path id="path3613" opacity=".3" d="m173.56 430.98c-32.41-49.68-98.29-68.6-174.81-68.6-59.087 0-111.83 11.28-147.72 39.29 179.64-40.77 220.86-9.66 322.53 29.31z" transform="matrix(.52665 0 0 .52737 -128.72 572.68)" filter="url(#filter3713)" fill="#003d98"/>
    <path id="path3711" opacity=".52427" d="m-1.25 1052.4c85.34 0 158.71-24.1 185.45-89.28-107.14 64.28-149.87 77.88-298.39 69.78 32.026 13.7 71.041 19.5 112.94 19.5z" transform="matrix(.52665 0 0 .52737 -128.72 572.68)" filter="url(#filter3717)" fill="#003d98"/>
    <rect id="rect3163" rx="18.782" ry="18.782" height="28.914" width="314.42" stroke="#000" stroke-linecap="round" y="1128.9" x="-288.31" stroke-width="5" fill="url(#linearGradient3165)"/>
  </g>
  <metadata>
    <rdf:RDF>
      <cc:Work>
        <dc:format>image/svg+xml</dc:format>
        <dc:type rdf:resource="http://purl.org/dc/dcmitype/StillImage"/>
        <cc:license rdf:resource="http://creativecommons.org/licenses/publicdomain/"/>
        <dc:publisher>
          <cc:Agent rdf:about="http://openclipart.org/">
            <dc:title>Openclipart</dc:title>
          </cc:Agent>
        </dc:publisher>
        <dc:title>clessidra - hourglass</dc:title>
        <dc:date>2007-04-26T02:25:36</dc:date>
        <dc:description>clip art, clipart, how i did it, icon, icon, image, media, png, public domain, svg, tool, tool, </dc:description>
        <dc:source>http://openclipart.org/detail/4077/clessidra---hourglass-by-ernes</dc:source>
        <dc:creator>
          <cc:Agent>
            <dc:title>ernes</dc:title>
          </cc:Agent>
        </dc:creator>
        <dc:subject>
          <rdf:Bag>
            <rdf:li>clip art</rdf:li>
            <rdf:li>clipart</rdf:li>
            <rdf:li>how i did it</rdf:li>
            <rdf:li>icon</rdf:li>
            <rdf:li>image</rdf:li>
            <rdf:li>media</rdf:li>
            <rdf:li>png</rdf:li>
            <rdf:li>public domain</rdf:li>
            <rdf:li>svg</rdf:li>
            <rdf:li>tool</rdf:li>
          </rdf:Bag>
        </dc:subject>
      </cc:Work>
      <cc:License rdf:about="http://creativecommons.org/licenses/publicdomain/">
        <cc:permits rdf:resource="http://creativecommons.org/ns#Reproduction"/>
        <cc:permits rdf:resource="http://creativecommons.org/ns#Distribution"/>
        <cc:permits rdf:resource="http://creativecommons.org/ns#DerivativeWorks"/>
      </cc:License>
    </rdf:RDF>
  </metadata>
</svg>
